<svg width="190" height="37" fill="none" xmlns="http://www.w3.org/2000/svg"><path d="M19.818 23.802v2.05h3.817v-2.05a6.915 6.915 0 005.23-1.666 5.492 5.492 0 001.56-4.12 5.663 5.663 0 00-1.597-4.265 7.572 7.572 0 00-5.193-1.666V9.906h-3.817v2.124a7.572 7.572 0 00-5.138 1.666 5.675 5.675 0 00-1.652 4.266 5.48 5.48 0 001.652 4.12 6.94 6.94 0 005.138 1.72zm3.542-8.77h.165a3.124 3.124 0 012.202.678 2.854 2.854 0 01.862 2.197 3.145 3.145 0 01-.899 2.233 2.884 2.884 0 01-2.165.715h-.202l.037-5.822zm-5.634.678a3.124 3.124 0 012.202-.677h.257v5.84h-.202a2.906 2.906 0 01-2.257-.733 3.236 3.236 0 01-.862-2.251 2.851 2.851 0 01.862-2.234v.055zm18.938-4.563h-3.816v14.646h3.816V11.147zm6.882 8.714h5.505v5.932h3.835V11.147h-3.835v5.474h-5.505v-5.474h-3.799v14.646h3.799v-5.931zm16.056 3.479h5.322l.918 2.453h4.055l-5.505-14.646h-4.166l-5.633 14.646h4.018l.991-2.453zm2.661-7.653l1.652 4.742h-3.248l1.596-4.742zm13.157 4.174h5.487v5.932h3.835V11.147h-3.835v5.474H75.42v-5.474h-3.817v14.646h3.817v-5.931zm19.653 6.264a9.193 9.193 0 003.303-.732v-4.486a4.292 4.292 0 01-3.321 1.52 4.061 4.061 0 01-2.734-1.007 3.992 3.992 0 01-1.175-2.856 4.093 4.093 0 011.266-3.002 3.675 3.675 0 012.643-.916 4.083 4.083 0 013.321 1.611v-4.595a8.992 8.992 0 00-3.431-.677 7.724 7.724 0 00-5.486 2.232 7.689 7.689 0 00-2.276 5.457A7.662 7.662 0 0089.403 24a7.957 7.957 0 005.67 2.124zm50.207-13.472h-1.211v5.199h1.34c1.927 0 3.101-.97 3.101-2.655 0-2.38-2.184-2.544-3.23-2.544zm12.974 6.774a5.242 5.242 0 00-2.477-.44h-1.633v5.237h1.835a4.063 4.063 0 002.569-.623 2.456 2.456 0 00.972-2.014 2.365 2.365 0 00-1.266-2.16zm-.037-4.321c0-2.417-2.367-2.453-2.844-2.453h-1.229v4.888h1.229c.826 0 2.844-.165 2.844-2.435z" fill="#5299F8"/><path d="M190 0H0v37h190V0zm-82.393 33.338H3.67V3.662h103.937v29.676zm21.213-19.003a7.352 7.352 0 00-1.835-1.355 6.38 6.38 0 00-2.533-.567 5.915 5.915 0 00-5.518 3.778 5.862 5.862 0 00-.39 2.318 5.841 5.841 0 001.699 4.234 5.88 5.88 0 004.228 1.735 6.033 6.033 0 002.661-.678 6.98 6.98 0 001.688-1.227v2.014a7.61 7.61 0 01-4.423 1.428 7.359 7.359 0 01-5.431-2.121 7.327 7.327 0 01-2.166-5.403 7.434 7.434 0 012.205-5.456 7.464 7.464 0 015.484-2.16 6.93 6.93 0 014.331 1.446v2.014zm10.643-1.684h-6.019v4.339h5.817v1.538h-5.817v5.693h6.019v1.538h-7.652V11.113h7.652v1.538zm6.074 6.737h-1.431v6.371h-1.634V11.113h2.661a5.275 5.275 0 013.67 1.025 4.092 4.092 0 011.358 3.149 4.069 4.069 0 01-4.661 4.1h.037zm14.111 5.4a5.513 5.513 0 01-3.523.971h-3.67V11.113h2.643a5.515 5.515 0 013.358.915 3.655 3.655 0 011.321 3.04 3.295 3.295 0 01-1.45 2.874 3.66 3.66 0 012.808 3.662 4.085 4.085 0 01-1.487 3.185zm6.129.971h-1.633V11.113h1.633v14.646zm15.011-11.424a7.334 7.334 0 00-1.835-1.355 6.379 6.379 0 00-2.532-.567 5.916 5.916 0 00-5.519 3.778 5.898 5.898 0 00-.39 2.318 5.841 5.841 0 001.7 4.234 5.866 5.866 0 004.227 1.735 6.033 6.033 0 002.661-.678 6.98 6.98 0 001.688-1.227v2.014a7.608 7.608 0 01-4.422 1.428 7.354 7.354 0 01-5.395-2.142 7.32 7.32 0 01-2.147-5.382 7.433 7.433 0 012.204-5.456 7.478 7.478 0 015.484-2.16 6.928 6.928 0 014.331 1.446l-.055 2.014z" fill="#5299F8"/></svg>